:FULLY-SPECIFIED
:FORCE-ALL-JOINTS-BE-3DOF
:DEGREES
917
root 2.69241 16.0654 32.3787 2.38024 10.2721 363.234
lfemur -10.391 5.50334 -4.36825
ltibia 23.6106 0 0
lfoot -10.2449 -29.28 0
ltoes 12.1885 0 0
rfemur -22.8246 -5.92926 -7.66212
rtibia 53.2739 0 0
rfoot 1.82346 -13.4721 0
rtoes -13.9748 0 0
lowerback -0.586048 -1.0154 -2.92372
upperback -0.722173 -1.33723 -5.36492
thorax -0.426091 -0.665222 -3.87756
lowerneck -7.00568 -3.90539 -0.568355
upperneck 4.07107 -5.49621 5.54886
head 2.7291 -2.56091 1.63413
lclavicle -2.00264e-15 8.48149e-15 0
lhumerus -52.7945 -37.9941 107.815
lradius 58.88 0 0
lwrist 16.26 0 0
lhand 38.6788 23.4689 0
lfingers 7.12502 0 0
lthumb 61.0814 34.4415 0
rclavicle -2.00264e-15 8.48149e-15 0
rhumerus -51.8889 34.8393 -82.6967
rradius 114.606 0 0
rwrist -7.15307 0 0
rhand 18.8992 -8.44587 0
rfingers 7.12502 0 0
rthumb 43.4829 -752.313 0
918
root 2.62275 16.0422 32.4231 2.63214 9.46818 363.424
lfemur -9.225 4.02652 -3.46707
ltibia 21.6001 0 0
lfoot -9.86747 -31.4078 0
ltoes 12.3058 0 0
rfemur -22.6104 -5.49946 -8.07901
rtibia 51.6119 0 0
rfoot 1.631 -12.749 0
rtoes -18.028 0 0
lowerback -0.917227 -0.947957 -2.89156
upperback -0.808262 -1.23304 -5.59652
thorax -0.333041 -0.614511 -4.14424
lowerneck -7.00973 -3.6966 -0.468475
upperneck 4.04684 -5.22726 5.58799
head 2.71003 -2.42475 1.6431
lclavicle -1.9837e-15 7.4213e-15 0
lhumerus -52.8859 -38.0492 107.648
lradius 58.7452 0 0
lwrist 16.4966 0 0
lhand 39.3586 23.9754 0
lfingers 7.12502 0 0
lthumb 61.6597 34.3206 0
rclavicle -1.9837e-15 7.4213e-15 0
rhumerus -52.3826 36.357 -81.6826
rradius 114.618 0 0
rwrist -6.96604 0 0
rhand 19.3899 -8.70225 0
rfingers 7.12502 0 0
rthumb 43.9422 -752.41 0
919
root 2.55309 16.0189 32.4674 2.88404 8.66421 363.615
lfemur -8.05902 2.5497 -2.56589
ltibia 19.5897 0 0
lfoot -9.49006 -33.5356 0
ltoes 12.423 0 0
rfemur -22.3963 -5.06966 -8.49589
rtibia 49.95 0 0
rfoot 1.43855 -12.0258 0
rtoes -22.0812 0 0
lowerback -1.24841 -0.880516 -2.85941
upperback -0.894352 -1.12884 -5.82812
thorax -0.239991 -0.563801 -4.41092
lowerneck -7.01379 -3.48781 -0.368596
upperneck 4.02261 -4.95832 5.62711
head 2.69096 -2.28859 1.65208
lclavicle -1.96477e-15 6.36111e-15 0
lhumerus -52.9773 -38.1043 107.48
lradius 58.6104 0 0
lwrist 16.7333 0 0
lhand 40.0384 24.4818 0
lfingers 7.12502 0 0
lthumb 62.2379 34.1996 0
rclavicle -1.96477e-15 6.36111e-15 0
rhumerus -52.8762 37.8746 -80.6685
rradius 114.631 0 0
rwrist -6.77901 0 0
rhand 19.8806 -8.95863 0
rfingers 7.12502 0 0
rthumb 44.4014 -752.508 0
920
root 2.48343 15.9957 32.5118 3.13594 7.86025 363.806
lfemur -6.89304 1.07288 -1.6647
ltibia 17.5792 0 0
lfoot -9.11265 -35.6634 0
ltoes 12.5403 0 0
rfemur -22.1821 -4.63985 -8.91278
rtibia 48.288 0 0
rfoot 1.2461 -11.3027 0
rtoes -26.1345 0 0
lowerback -1.57958 -0.813075 -2.82726
upperback -0.980442 -1.02464 -6.05973
thorax -0.146942 -0.51309 -4.6776
lowerneck -7.01785 -3.27902 -0.268716
upperneck 3.99839 -4.68938 5.66623
head 2.6719 -2.15244 1.66106
lclavicle -1.94584e-15 5.30093e-15 0
lhumerus -53.0686 -38.1595 107.312
lradius 58.4755 0 0
lwrist 16.97 0 0
lhand 40.7181 24.9882 0
lfingers 7.12502 0 0
lthumb 62.8161 34.0787 0
rclavicle -1.94584e-15 5.30093e-15 0
rhumerus -53.3699 39.3923 -79.6545
rradius 114.644 0 0
rwrist -6.59198 0 0
rhand 20.3713 -9.21501 0
rfingers 7.12502 0 0
rthumb 44.8607 -752.606 0
921
root 2.41377 15.9725 32.5562 3.38784 7.05628 363.996
lfemur -5.72706 -0.40394 -0.763524
ltibia 15.5687 0 0
lfoot -8.73524 -37.7912 0
ltoes 12.6576 0 0
rfemur -21.9679 -4.21005 -9.32966
rtibia 46.626 0 0
rfoot 1.05365 -10.5795 0
rtoes -30.1877 0 0
lowerback -1.91076 -0.745634 -2.79511
upperback -1.06653 -0.920448 -6.29133
thorax -0.0538916 -0.462379 -4.94428
lowerneck -7.02191 -3.07023 -0.168836
upperneck 3.97416 -4.42044 5.70536
head 2.65283 -2.01628 1.67003
lclavicle -1.92691e-15 4.24074e-15 0
lhumerus -53.16 -38.2146 107.145
lradius 58.3407 0 0
lwrist 17.2066 0 0
lhand 41.3979 25.4946 0
lfingers 7.12502 0 0
lthumb 63.3943 33.9578 0
rclavicle -1.92691e-15 4.24074e-15 0
rhumerus -53.8635 40.91 -78.6404
rradius 114.657 0 0
rwrist -6.40495 0 0
rhand 20.862 -9.47139 0
rfingers 7.12502 0 0
rthumb 45.3199 -752.703 0
922
root 2.34411 15.9493 32.6006 3.63974 6.25232 364.187
lfemur -4.56109 -1.88076 0.137657
ltibia 13.5582 0 0
lfoot -8.35783 -39.919 0
ltoes 12.7748 0 0
rfemur -21.7537 -3.78025 -9.74655
rtibia 44.964 0 0
rfoot 0.861195 -9.85641 0
rtoes -34.2409 0 0
lowerback -2.24194 -0.678193 -2.76296
upperback -1.15262 -0.816252 -6.52294
thorax 0.0391583 -0.411669 -5.21096
lowerneck -7.02597 -2.86144 -0.0689569
upperneck 3.94993 -4.1515 5.74448
head 2.63376 -1.88012 1.67901
lclavicle -1.90798e-15 3.18056e-15 0
lhumerus -53.2513 -38.2698 106.977
lradius 58.2059 0 0
lwrist 17.4433 0 0
lhand 42.0777 26.001 0
lfingers 7.12502 0 0
lthumb 63.9725 33.8368 0
rclavicle -1.90798e-15 3.18056e-15 0
rhumerus -54.3572 42.4277 -77.6264
rradius 114.67 0 0
rwrist -6.21791 0 0
rhand 21.3526 -9.72776 0
rfingers 7.12502 0 0
rthumb 45.7792 -752.801 0
923
root 2.27445 15.926 32.6449 3.89164 5.44835 364.378
lfemur -3.39511 -3.35758 1.03884
ltibia 11.5478 0 0
lfoot -7.98042 -42.0468 0
ltoes 12.8921 0 0
rfemur -21.5396 -3.35045 -10.1634
rtibia 43.3021 0 0
rfoot 0.668742 -9.13327 0
rtoes -38.2941 0 0
lowerback -2.57312 -0.610752 -2.7308
upperback -1.23871 -0.712055 -6.75454
thorax 0.132208 -0.360958 -5.47764
lowerneck -7.03002 -2.65265 0.0309228
upperneck 3.9257 -3.88255 5.7836
head 2.61469 -1.74396 1.68799
lclavicle -1.88904e-15 2.12037e-15 0
lhumerus -53.3427 -38.3249 106.809
lradius 58.0711 0 0
lwrist 17.68 0 0
lhand 42.7575 26.5075 0
lfingers 7.12502 0 0
lthumb 64.5508 33.7159 0
rclavicle -1.88904e-15 2.12037e-15 0
rhumerus -54.8508 43.9453 -76.6123
rradius 114.682 0 0
rwrist -6.03088 0 0
rhand 21.8433 -9.98414 0
rfingers 7.12502 0 0
rthumb 46.2384 -752.899 0
924
root 2.20479 15.9028 32.6893 4.14354 4.64439 364.568
lfemur -2.22913 -4.8344 1.94002
ltibia 9.53729 0 0
lfoot -7.60301 -44.1746 0
ltoes 13.0093 0 0
rfemur -21.3254 -2.92064 -10.5803
rtibia 41.6401 0 0
rfoot 0.47629 -8.41013 0
rtoes -42.3473 0 0
lowerback -2.9043 -0.543311 -2.69865
upperback -1.3248 -0.607859 -6.98615
thorax 0.225258 -0.310248 -5.74432
lowerneck -7.03408 -2.44386 0.130802
upperneck 3.90147 -3.61361 5.82273
head 2.59563 -1.60781 1.69696
lclavicle -1.87011e-15 1.06019e-15 0
lhumerus -53.434 -38.3801 106.642
lradius 57.9363 0 0
lwrist 17.9166 0 0
lhand 43.4372 27.0139 0
lfingers 7.12502 0 0
lthumb 65.129 33.5949 0
rclavicle -1.87011e-15 1.06019e-15 0
rhumerus -55.3445 45.463 -75.5983
rradius 114.695 0 0
rwrist -5.84385 0 0
rhand 22.334 -10.2405 0
rfingers 7.12502 0 0
rthumb 46.6977 -752.996 0
925
root 2.13513 15.8796 32.7337 4.39544 3.84042 364.759
lfemur -1.06315 -6.31122 2.8412
ltibia 7.52681 0 0
lfoot -7.2256 -46.3024 0
ltoes 13.1266 0 0
rfemur -21.1112 -2.49084 -10.9972
rtibia 39.9781 0 0
rfoot 0.283837 -7.68699 0
rtoes -46.4005 0 0
lowerback -3.23548 -0.47587 -2.6665
upperback -1.41089 -0.503662 -7.21775
thorax 0.318308 -0.259537 -6.011
lowerneck -7.03814 -2.23507 0.230682
upperneck 3.87724 -3.34467 5.86185
head 2.57656 -1.47165 1.70594
lclavicle -1.85118e-15 0 0
lhumerus -53.5254 -38.4352 106.474
lradius 57.8015 0 0
lwrist 18.1533 0 0
lhand 44.117 27.5203 0
lfingers 7.12502 0 0
lthumb 65.7072 33.474 0
rclavicle -1.85118e-15 0 0
rhumerus -55.8381 46.9807 -74.5842
rradius 114.708 0 0
rwrist -5.65682 0 0
rhand 22.8247 -10.4969 0
rfingers 7.12502 0 0
rthumb 47.1569 -753.094 0
926
root 2.09016 15.8531 32.7354 4.51551 3.53074 364.767
lfemur -0.702923 -5.98386 2.88316
ltibia 7.18666 0 0
lfoot -8.22633 -44.8107 0
ltoes 11.0246 0 0
rfemur -21.5846 -3.11313 -10.8469
rtibia 40.3842 0 0
rfoot -0.68646 -7.13622 0
rtoes -46.2287 0 0
lowerback -3.19317 -0.471226 -2.50958
upperback -1.41678 -0.50467 -7.2079
thorax 0.286946 -0.261701 -6.09062
lowerneck -7.02169 -2.11207 0.419334
upperneck 3.74807 -3.18463 5.74309
head 2.52487 -1.3965 1.64115
lclavicle -2.41618e-15 -1.89319e-15 0
lhumerus -53.7966 -38.6962 106.76
lradius 57.6991 0 0
lwrist 18.4879 0 0
lhand 43.9469 27.3827 0
lfingers 7.12502 0 0
lthumb 65.5709 33.5481 0
rclavicle -2.41618e-15 -1.89319e-15 0
rhumerus -53.0217 43.0178 -71.1709
rradius 110.635 0 0
rwrist -6.17812 0 0
rhand 19.8166 -12.3948 0
rfingers 7.12502 0 0
rthumb 44.278 -755.323 0
